HIERARCHY
ROOT hip
{
  OFFSET -3.6267 81.8439 -6.13607
  CHANNELS 6 Xposition Yposition Zposition Zrotation Xrotation Yrotation
  JOINT abdomen
  {
    OFFSET 0 20.6881 -0.73152
    CHANNELS 3 Zrotation Xrotation Yrotation
    JOINT chest
    {
      OFFSET 0 11.7043 -0.48768
      CHANNELS 3 Zrotation Xrotation Yrotation
      JOINT neck
      {
        OFFSET 0 22.1894 -2.19456
        CHANNELS 3 Zrotation Xrotation Yrotation
        JOINT head
        {
          OFFSET -0.24384 7.07133 1.2192
          CHANNELS 3 Zrotation Xrotation Yrotation
          JOINT leftEye
          {
            OFFSET 4.14528 8.04674 8.04672
            CHANNELS 3 Zrotation Xrotation Yrotation
            End Site
            {
              OFFSET 1 0 0
            }
          }
          JOINT rightEye
          {
            OFFSET -3.6576 8.04674 8.04672
            CHANNELS 3 Zrotation Xrotation Yrotation
            End Site
            {
              OFFSET 1 0 0
            }
          }
        }
      }
      JOINT rCollar
      {
        OFFSET -2.68224 19.2634 -4.8768
        CHANNELS 3 Zrotation Xrotation Yrotation
        JOINT rShldr
        {
          OFFSET -8.77824 -1.95073 1.46304
          CHANNELS 3 Zrotation Xrotation Yrotation
          JOINT rForeArm
          {
            OFFSET -28.1742 -1.7115 0.48768
            CHANNELS 3 Zrotation Xrotation Yrotation
            JOINT rHand
            {
              OFFSET -22.5879 0.773209 7.07136
              CHANNELS 3 Zrotation Xrotation Yrotation
              JOINT rThumb1
              {
                OFFSET -1.2192 -0.487915 3.41376
                CHANNELS 3 Zrotation Xrotation Yrotation
                JOINT rThumb2
                {
                  OFFSET -3.37035 -0.52449 3.41376
                  CHANNELS 3 Zrotation Xrotation Yrotation
                  End Site
                  {
                    OFFSET -1.78271 -1.18214 1.43049
                  }
                }
              }
              JOINT rIndex1
              {
                OFFSET -7.75947 0.938293 5.60832
                CHANNELS 3 Zrotation Xrotation Yrotation
                JOINT rIndex2
                {
                  OFFSET -2.54057 -0.884171 1.56538
                  CHANNELS 3 Zrotation Xrotation Yrotation
                  End Site
                  {
                    OFFSET -1.62519 -0.234802 1.16502
                  }
                }
              }
              JOINT rMid1
              {
                OFFSET -8.24714 1.18213 3.41376
                CHANNELS 3 Zrotation Xrotation Yrotation
                JOINT rMid2
                {
                  OFFSET -3.10165 -0.590103 1.0647
                  CHANNELS 3 Zrotation Xrotation Yrotation
                  End Site
                  {
                    OFFSET -2.48547 -0.328903 0.83742
                  }
                }
              }
              JOINT rRing1
              {
                OFFSET -8.82822 0.546677 1.51678
                CHANNELS 3 Zrotation Xrotation Yrotation
                JOINT rRing2
                {
                  OFFSET -2.60934 -0.819778 -0.0198488
                  CHANNELS 3 Zrotation Xrotation Yrotation
                  End Site
                  {
                    OFFSET -2.33842 -0.294052 0.168128
                  }
                }
              }
              JOINT rPinky1
              {
                OFFSET -8.27202 -0.0477905 -0.4584
                CHANNELS 3 Zrotation Xrotation Yrotation
                JOINT rPinky2
                {
                  OFFSET -1.82734 -0.647385 -0.700984
                  CHANNELS 3 Zrotation Xrotation Yrotation
                  End Site
                  {
                    OFFSET -1.69225 -0.51767 -0.607171
                  }
                }
              }
            }
          }
        }
      }
      JOINT lCollar
      {
        OFFSET 2.68224 19.2634 -4.8768
        CHANNELS 3 Zrotation Xrotation Yrotation
        JOINT lShldr
        {
          OFFSET 8.77824 -1.95073 1.46304
          CHANNELS 3 Zrotation Xrotation Yrotation
          JOINT lForeArm
          {
            OFFSET 28.1742 -1.7115 0.48768
            CHANNELS 3 Zrotation Xrotation Yrotation
            JOINT lHand
            {
              OFFSET 22.5879 0.773209 7.07136
              CHANNELS 3 Zrotation Xrotation Yrotation
              JOINT lThumb1
              {
                OFFSET 1.2192 -0.487915 3.41376
                CHANNELS 3 Zrotation Xrotation Yrotation
                JOINT lThumb2
                {
                  OFFSET 3.37035 -0.52449 3.41376
                  CHANNELS 3 Zrotation Xrotation Yrotation
                  End Site
                  {
                    OFFSET 1.78271 -1.18214 1.43049
                  }
                }
              }
              JOINT lIndex1
              {
                OFFSET 7.75947 0.938293 5.60832
                CHANNELS 3 Zrotation Xrotation Yrotation
                JOINT lIndex2
                {
                  OFFSET 2.54057 -0.884171 1.56538
                  CHANNELS 3 Zrotation Xrotation Yrotation
                  End Site
                  {
                    OFFSET 1.62519 -0.234802 1.16502
                  }
                }
              }
              JOINT lMid1
              {
                OFFSET 8.24714 1.18213 3.41376
                CHANNELS 3 Zrotation Xrotation Yrotation
                JOINT lMid2
                {
                  OFFSET 3.10165 -0.590103 1.0647
                  CHANNELS 3 Zrotation Xrotation Yrotation
                  End Site
                  {
                    OFFSET 2.48547 -0.328903 0.83742
                  }
                }
              }
              JOINT lRing1
              {
                OFFSET 8.82822 0.546677 1.51678
                CHANNELS 3 Zrotation Xrotation Yrotation
                JOINT lRing2
                {
                  OFFSET 2.60934 -0.819778 -0.0198488
                  CHANNELS 3 Zrotation Xrotation Yrotation
                  End Site
                  {
                    OFFSET 2.33842 -0.294052 0.168128
                  }
                }
              }
              JOINT lPinky1
              {
                OFFSET 8.27202 -0.0477905 -0.4584
                CHANNELS 3 Zrotation Xrotation Yrotation
                JOINT lPinky2
                {
                  OFFSET 1.82734 -0.647385 -0.700984
                  CHANNELS 3 Zrotation Xrotation Yrotation
                  End Site
                  {
                    OFFSET 1.69225 -0.51767 -0.607171
                  }
                }
              }
            }
          }
        }
      }
    }
  }
  JOINT rButtock
  {
    OFFSET -8.77824 4.35084 1.2192
    CHANNELS 3 Zrotation Xrotation Yrotation
    JOINT rThigh
    {
      OFFSET 0 -1.70687 -2.19456
      CHANNELS 3 Zrotation Xrotation Yrotation
      JOINT rShin
      {
        OFFSET 0 -36.8199 0.73152
        CHANNELS 3 Zrotation Xrotation Yrotation
        JOINT rFoot
        {
          OFFSET 0.73152 -45.1104 -5.12064
          CHANNELS 3 Zrotation Xrotation Yrotation
          End Site
          {
            OFFSET -1.1221 -3.69964 12.103
          }
        }
      }
    }
  }
  JOINT lButtock
  {
    OFFSET 8.77824 4.35084 1.2192
    CHANNELS 3 Zrotation Xrotation Yrotation
    JOINT lThigh
    {
      OFFSET 0 -1.70687 -2.19456
      CHANNELS 3 Zrotation Xrotation Yrotation
      JOINT lShin
      {
        OFFSET 0 -36.8199 0.73152
        CHANNELS 3 Zrotation Xrotation Yrotation
        JOINT lFoot
        {
          OFFSET -0.73152 -45.1104 -5.12064
          CHANNELS 3 Zrotation Xrotation Yrotation
          End Site
          {
            OFFSET 1.1221 -3.69964 12.103
          }
        }
      }
    }
  }
}
MOTION
Frames:	4
Frame Time:	0.00833333
-6.72649 84.1002 -24.731 1.15514 0.00311846 -0.0216558 -1.51925 -0.00282957 -0.0413933 -0.418697 0.00102582 -0.072511 8.3808e-014 -1.59028e-015 4.9696e-017 2.51882e-013 3.18055e-015 2.45375e-016 -0 0 0 -0 0 0 4.19933e-014 -2.91188e-018 2.48481e-016 8.82842e-013 -2.04997e-016 4.17448e-015 1.51471e-011 -4.54859e-012 -1.33583e-013 1.73596e-010 4.53234e-012 3.78486e-013 4.09432e-010 -3.49159e-014 5.24792e-013 7.0706e-010 -6.36111e-014 8.84989e-013 4.09436e-010 -3.4191e-014 5.12069e-013 7.73091 5.47488 0.417314 4.09432e-010 -3.47873e-014 5.24792e-013 2.90554 0.965183 0.102902 4.0944e-010 -3.46879e-014 5.25587e-013 10.2786 0.731801 0.0259123 4.09426e-010 -3.29983e-014 5.34333e-013 2.22167 -0.733487 -0.20892 4.18966e-014 -3.30014e-018 -1.49089e-016 8.78513e-013 -4.84538e-016 2.98177e-015 1.51871e-011 4.52513e-012 -1.20861e-013 1.73558e-010 -4.56459e-012 3.91208e-013 4.09445e-010 -7.96043e-014 5.27972e-013 7.07101e-010 -1.39944e-013 9.00892e-013 4.0944e-010 -7.91163e-014 5.34333e-013 -7.73091 5.47488 -0.417314 4.09446e-010 -8.01102e-014 5.27972e-013 -2.90554 0.965183 -0.102902 4.09437e-010 -7.91163e-014 5.28767e-013 -10.2786 0.731801 -0.0259123 4.09452e-010 -7.83212e-014 5.1843e-013 -2.22167 -0.733487 0.20892 -2.03217e-016 0 -3.88251e-019 -0.640686 -1.92322 -0.00643384 -0.00925358 -2.07856 -0.0764184 -0.511995 3.99733 0.140289 2.03217e-016 0 3.88251e-019 -1.66989 -6.4978 0.154705 -0.00230956 6.20796 -0.0679738 0.534204 0.285504 -0.0665868 
-7.64213 82.5766 -27.3977 -0.275409 2.32884 0.409152 -0.739473 -1.79282 0.841693 0.431081 0.408244 0.161235 1.4398 -1.15114 0.514161 -3.07445 2.97387 0.815162 -0 0 0 -0 0 0 8.43973e-014 1.58572e-014 2.43985e-014 20.2945 16.9206 0.138023 -20.6354 -18.4272 15.1457 0.0517249 -5.05128 -0.700003 3.87211e-010 -1.66051e-009 5.16282e-010 6.61452e-010 -2.87118e-009 8.92811e-010 3.87214e-010 -1.66051e-009 5.16267e-010 7.73091 5.47488 0.417314 3.8721e-010 -1.66051e-009 5.1628e-010 2.90554 0.965183 0.102902 3.87217e-010 -1.66051e-009 5.16282e-010 10.2786 0.731801 0.0259123 3.87204e-010 -1.66051e-009 5.16292e-010 2.22167 -0.733487 -0.20892 8.43299e-014 1.58569e-014 2.40281e-014 -20.6161 17.8799 -0.974031 18.177 -15.7572 -15.0933 -0.0271729 -3.6614 0.510801 2.62344e-010 -1.99183e-009 -3.94938e-010 4.57898e-010 -3.44574e-009 -6.84257e-010 2.62341e-010 -1.99182e-009 -3.94927e-010 -7.73091 5.47488 -0.417314 2.62345e-010 -1.99183e-009 -3.94936e-010 -2.90554 0.965183 -0.102902 2.62335e-010 -1.99183e-009 -3.94937e-010 -10.2786 0.731801 -0.0259123 2.6235e-010 -1.99183e-009 -3.94946e-010 -2.22167 -0.733487 0.20892 -2.03217e-016 0 -3.88251e-019 1.46728 -5.45953 0.0781212 -0.01281 3.66998 0.0254837 -0.587071 1.12457 -1.20901 2.03217e-016 0 3.88251e-019 0.648015 -9.59174 1.27046 -0.0097504 11.7236 -0.150489 0.633948 -2.05567 1.10728 
-7.60348 82.5742 -27.4016 -1.82665 4.79076 0.853256 0.145244 -3.69149 1.78462 1.32903 0.843866 0.410059 2.98136 -2.37943 1.05538 -6.40515 6.09339 1.67445 -0 0 0 -0 0 0 1.30859e-013 3.79169e-014 5.12802e-014 41.6434 34.8075 0.328743 -30.6327 -33.3447 36.1498 -0.0297534 -10.3692 -1.4556 3.80726e-010 -3.64608e-009 1.12659e-009 6.41615e-010 -6.30491e-009 1.9484e-009 3.80727e-010 -3.64608e-009 1.12657e-009 7.73091 5.47488 0.417314 3.80724e-010 -3.64608e-009 1.12658e-009 2.90554 0.965183 0.102902 3.80728e-010 -3.64608e-009 1.12659e-009 10.2786 0.731801 0.0259123 3.80718e-010 -3.64608e-009 1.1266e-009 2.22167 -0.733487 -0.20892 1.30825e-013 3.79168e-014 5.09386e-014 -41.5964 36.7741 -2.39083 27.7608 -28.6038 -34.5432 0.0156055 -7.51243 1.05517 9.97949e-011 -4.4295e-009 -8.83973e-010 1.83117e-010 -7.66191e-009 -1.53134e-009 9.97934e-011 -4.42948e-009 -8.83958e-010 -7.73091 5.47488 -0.417314 9.97954e-011 -4.4295e-009 -8.8397e-010 -2.90554 0.965183 -0.102902 9.97853e-011 -4.42951e-009 -8.83974e-010 -10.2786 0.731801 -0.0259123 9.97999e-011 -4.42951e-009 -8.83981e-010 -2.22167 -0.733487 0.20892 -2.03217e-016 0 -3.88251e-019 3.71196 -9.20022 0.176317 -0.0390158 9.74615 0.13505 -0.812709 -1.90932 -2.6292 2.03217e-016 0 3.88251e-019 3.23839 -12.8548 2.48593 0.000708189 17.5542 -0.243043 0.844378 -4.5262 2.35812 
-7.52423 82.585 -27.3892 -3.24208 6.97875 1.27923 0.986171 -5.36779 2.61812 2.12067 1.22261 0.628857 4.38146 -3.45231 1.54498 -9.47978 8.91434 2.47207 -0 0 0 -0 0 0 1.69205e-013 4.75774e-014 7.26985e-014 60.5189 50.7603 0.626258 -30.003 -37.858 59.8487 -0.22635 -15.1446 -2.16715 3.42769e-010 -4.98146e-009 1.5478e-009 5.70236e-010 -8.61342e-009 2.67666e-009 3.4277e-010 -4.98147e-009 1.54778e-009 7.73091 5.47488 0.417314 3.42767e-010 -4.98146e-009 1.54779e-009 2.90554 0.965183 0.102902 3.42769e-010 -4.98146e-009 1.5478e-009 10.2786 0.731801 0.0259123 3.42761e-010 -4.98146e-009 1.54781e-009 2.22167 -0.733487 -0.20892 1.69196e-013 4.75773e-014 7.23825e-014 -58.974 53.5555 -4.68476 28.8278 -33.0946 -55.3113 0.117417 -10.9807 1.5578 -3.18577e-011 -5.97533e-009 -1.18587e-009 -4.0507e-011 -1.03369e-008 -2.05457e-009 -3.18576e-011 -5.9753e-009 -1.18585e-009 -7.73091 5.47488 -0.417314 -3.18576e-011 -5.97532e-009 -1.18586e-009 -2.90554 0.965183 -0.102902 -3.1868e-011 -5.97533e-009 -1.18587e-009 -10.2786 0.731801 -0.0259123 -3.18538e-011 -5.97533e-009 -1.18588e-009 -2.22167 -0.733487 0.20892 -2.03217e-016 0 -3.88251e-019 5.7152 -12.532 0.252169 -0.0826573 15.1669 0.237296 -1.1434 -4.60946 -3.91892 2.03217e-016 0 3.88251e-019 5.65853 -15.7571 3.58559 0.0270586 22.7547 -0.3328 1.12269 -6.72687 3.47684 
